<?xml version="1.0" encoding="UTF-8"?>
<svg xmlns="http://www.w3.org/2000/svg" xmlns:xlink="http://www.w3.org/1999/xlink" width="2000" height="2000" viewBox="0 0 2000 2000">

<path fill-rule="evenodd" fill="rgb(95.701599%, 96.875%, 98.046875%)" fill-opacity="1" d="M 1908.238281 1915.15625 L 1889.179688 1915.15625 C 1888.300781 1915.15625 1887.589844 1915.871094 1887.589844 1916.746094 L 1887.589844 1935.800781 C 1887.589844 1936.679688 1888.300781 1937.394531 1889.179688 1937.394531 L 1908.238281 1937.394531 C 1909.109375 1937.394531 1909.828125 1936.679688 1909.828125 1935.800781 L 1909.828125 1916.746094 C 1909.828125 1915.871094 1909.109375 1915.15625 1908.238281 1915.15625 "/>
<path fill-rule="evenodd" fill="rgb(95.701599%, 96.875%, 98.046875%)" fill-opacity="1" d="M 1865.28125 1916.171875 L 1847.089844 1916.171875 C 1846.261719 1916.171875 1845.578125 1916.855469 1845.578125 1917.691406 L 1845.578125 1935.875 C 1845.578125 1936.710938 1846.261719 1937.394531 1847.089844 1937.394531 L 1865.28125 1937.394531 C 1866.109375 1937.394531 1866.800781 1936.710938 1866.800781 1935.875 L 1866.800781 1917.691406 C 1866.800781 1916.855469 1866.109375 1916.171875 1865.28125 1916.171875 "/>
<path fill-rule="evenodd" fill="rgb(95.701599%, 96.875%, 98.046875%)" fill-opacity="1" d="M 1822.320312 1917.1875 L 1805.011719 1917.1875 C 1804.210938 1917.1875 1803.558594 1917.839844 1803.558594 1918.636719 L 1803.558594 1935.949219 C 1803.558594 1936.742188 1804.210938 1937.394531 1805.011719 1937.394531 L 1822.320312 1937.394531 C 1823.121094 1937.394531 1823.769531 1936.742188 1823.769531 1935.949219 L 1823.769531 1918.636719 C 1823.769531 1917.839844 1823.121094 1917.1875 1822.320312 1917.1875 "/>
<path fill-rule="evenodd" fill="rgb(95.701599%, 96.875%, 98.046875%)" fill-opacity="1" d="M 1779.371094 1918.207031 L 1762.929688 1918.207031 C 1762.171875 1918.207031 1761.550781 1918.824219 1761.550781 1919.582031 L 1761.550781 1936.019531 C 1761.550781 1936.777344 1762.171875 1937.394531 1762.929688 1937.394531 L 1779.371094 1937.394531 C 1780.121094 1937.394531 1780.738281 1936.777344 1780.738281 1936.019531 L 1780.738281 1919.582031 C 1780.738281 1918.824219 1780.121094 1918.207031 1779.371094 1918.207031 "/>
<path fill-rule="evenodd" fill="rgb(95.701599%, 96.875%, 98.046875%)" fill-opacity="1" d="M 1736.410156 1919.222656 L 1720.839844 1919.222656 C 1720.128906 1919.222656 1719.539062 1919.808594 1719.539062 1920.523438 L 1719.539062 1936.09375 C 1719.539062 1936.808594 1720.128906 1937.394531 1720.839844 1937.394531 L 1736.410156 1937.394531 C 1737.128906 1937.394531 1737.710938 1936.808594 1737.710938 1936.09375 L 1737.710938 1920.523438 C 1737.710938 1919.808594 1737.128906 1919.222656 1736.410156 1919.222656 "/>
<path fill-rule="evenodd" fill="rgb(95.701599%, 96.875%, 98.046875%)" fill-opacity="1" d="M 1693.460938 1920.238281 L 1678.761719 1920.238281 C 1678.078125 1920.238281 1677.53125 1920.792969 1677.53125 1921.46875 L 1677.53125 1936.167969 C 1677.53125 1936.84375 1678.078125 1937.394531 1678.761719 1937.394531 L 1693.460938 1937.394531 C 1694.128906 1937.394531 1694.679688 1936.84375 1694.679688 1936.167969 L 1694.679688 1921.46875 C 1694.679688 1920.792969 1694.128906 1920.238281 1693.460938 1920.238281 "/>
<path fill-rule="evenodd" fill="rgb(95.701599%, 96.875%, 98.046875%)" fill-opacity="1" d="M 1650.5 1921.257812 L 1636.671875 1921.257812 C 1636.039062 1921.257812 1635.519531 1921.777344 1635.519531 1922.414062 L 1635.519531 1936.238281 C 1635.519531 1936.875 1636.039062 1937.394531 1636.671875 1937.394531 L 1650.5 1937.394531 C 1651.140625 1937.394531 1651.648438 1936.875 1651.648438 1936.238281 L 1651.648438 1922.414062 C 1651.648438 1921.777344 1651.140625 1921.257812 1650.5 1921.257812 "/>
<path fill-rule="evenodd" fill="rgb(95.701599%, 96.875%, 98.046875%)" fill-opacity="1" d="M 1607.539062 1922.273438 L 1594.589844 1922.273438 C 1593.988281 1922.273438 1593.511719 1922.761719 1593.511719 1923.355469 L 1593.511719 1936.3125 C 1593.511719 1936.90625 1593.988281 1937.394531 1594.589844 1937.394531 L 1607.539062 1937.394531 C 1608.140625 1937.394531 1608.628906 1936.90625 1608.628906 1936.3125 L 1608.628906 1923.355469 C 1608.628906 1922.761719 1608.140625 1922.273438 1607.539062 1922.273438 "/>
<path fill-rule="evenodd" fill="rgb(95.701599%, 96.875%, 98.046875%)" fill-opacity="1" d="M 1564.589844 1923.292969 L 1552.5 1923.292969 C 1551.949219 1923.292969 1551.488281 1923.746094 1551.488281 1924.300781 L 1551.488281 1936.386719 C 1551.488281 1936.941406 1551.949219 1937.394531 1552.5 1937.394531 L 1564.589844 1937.394531 C 1565.140625 1937.394531 1565.601562 1936.941406 1565.601562 1936.386719 L 1565.601562 1924.300781 C 1565.601562 1923.746094 1565.140625 1923.292969 1564.589844 1923.292969 "/>
<path fill-rule="nonzero" fill="rgb(24.31488%, 27.050781%, 30.589294%)" fill-opacity="1" d="M 699.679688 1382.058594 C 688.691406 1396.878906 691.796875 1417.800781 706.617188 1428.789062 C 721.4375 1439.78125 742.359375 1436.671875 753.347656 1421.851562 L 1246.058594 759.480469 C 1257.050781 744.660156 1253.941406 723.730469 1239.121094 712.75 C 1224.300781 701.761719 1203.378906 704.859375 1192.390625 719.679688 Z M 1292.390625 585.238281 C 1281.410156 600.058594 1284.511719 620.988281 1299.328125 631.980469 C 1314.148438 642.960938 1335.078125 639.859375 1346.058594 625.039062 L 1474.289062 396.601562 L 1292.390625 585.238281 "/>
<path fill-rule="nonzero" fill="rgb(24.31488%, 27.050781%, 30.589294%)" fill-opacity="1" d="M 691.5625 1447.449219 L 558.859375 1461.070312 C 551.457031 1462.367188 543.558594 1460.738281 537.050781 1455.902344 C 524.5 1446.566406 521.894531 1428.820312 531.230469 1416.265625 L 531.300781 1416.320312 L 719.277344 1163.613281 C 723.757812 1156.484375 731.355469 1151.417969 740.378906 1150.492188 L 743.269531 1178.671875 L 740.394531 1150.566406 L 898.871094 1134.300781 C 915.105469 1131.453125 929.785156 1142.84375 931.851562 1158.5 L 961.917969 1315.335938 C 965.683594 1314.613281 957.132812 1337.402344 955.472656 1339.304688 L 767.519531 1591.976562 L 767.5625 1592.066406 C 752.273438 1612.621094 720.023438 1603.734375 716.75 1578.851562 L 691.5625 1447.449219 "/>
<path fill-rule="nonzero" fill="rgb(24.31488%, 27.050781%, 30.589294%)" fill-opacity="1" d="M 1216.011719 743.871094 C 1215.890625 744.03125 1214.320312 742.609375 1214.109375 742.421875 C 1195.441406 727.75 1184.148438 707.089844 1180.949219 685.269531 C 1177.640625 662.730469 1182.949219 638.898438 1197.648438 619.128906 L 1199.128906 617.199219 C 1213.800781 598.539062 1234.460938 587.25 1256.28125 584.050781 C 1278.808594 580.730469 1302.640625 586.039062 1322.421875 600.75 C 1342.230469 615.488281 1354.191406 636.808594 1357.5 659.371094 C 1360.808594 681.910156 1355.511719 705.738281 1340.800781 725.511719 C 1326.058594 745.320312 1304.730469 757.28125 1282.179688 760.601562 C 1249.558594 765.390625 1216.039062 743.898438 1216.011719 743.871094 "/>
</svg>
